# AST/ASF file generated using VICON BodyLanguage
# -----------------------------------------------
:version 1.10
:name VICON
:units
  mass 1.0
  length 0.45
  angle deg
:documentation
   .ast/.asf automatically generated from VICON data using
   VICON BodyBuilder and BodyLanguage model FoxedUp or BRILLIANT.MOD
:root
   order TX TY TZ RX RY RZ
   axis XYZ
   position 0 0 0  
   orientation 0 0 0 
:bonedata
  begin
     id 1 
     name lhipjoint
     direction 0.734343 -0.627749 0.258209 
     length 2.5437 
     axis 0 0 0  XYZ
  end
  begin
     id 2 
     name lfemur
     direction 0.34202 -0.939693 0  
     length 6.7391  
     axis 0 0 20  XYZ
    dof rx ry rz
    limits (-160.0 20.0)
           (-70.0 70.0)
           (-60.0 70.0)
  end
  begin
     id 3 
     name ltibia
     direction 0.34202 -0.939693 0   
     length 7.21536   
     axis 0 0 20   XYZ
    dof rx
    limits (-10.0 170.0)
  end
  begin
     id 4 
     name lfoot
     direction 0.0489572 -0.134509 0.989702   
     length 1.61313   
     axis -90 7.62852e-016 20   XYZ
    dof rx rz
    limits (-45.0 90.0)
           (-70.0 20.0)
  end
  begin
     id 5 
     name ltoes
     direction 1.53451e-011 -4.21692e-011 1   
     length 0.823104   
     axis -90 7.62852e-016 20   XYZ
    dof rx
    limits (-90.0 20.0)
  end
  begin
     id 6 
     name rhipjoint
     direction -0.746398 -0.615468 0.253157   
     length 2.59446  
     axis 0 0 0  XYZ 
  end
  begin
     id 7 
     name rfemur
     direction -0.34202 -0.939693 0   
     length 6.7075   
     axis 0 0 -20   XYZ
    dof rx ry rz
    limits (-160.0 20.0)
           (-70.0 70.0)
           (-70.0 60.0)
  end
  begin
     id 8 
     name rtibia
     direction -0.34202 -0.939693 0   
     length 7.27262   
     axis 0 0 -20   XYZ
    dof rx
    limits (-10.0 170.0)
 end
 begin
     id 9 
     name rfoot
     direction -0.0455203 -0.125066 0.991104   
     length 1.91095  
     axis -90 -7.62852e-016 -20   XYZ
    dof rx rz
    limits (-45.0 90.0)
           (-20.0 70.0)
  end
  begin
     id 10 
     name rtoes
     direction -1.53601e-011 -4.21913e-011 1   
     length 0.969037   
     axis -90 -7.62852e-016 -20   XYZ
    dof rx
    limits (-90.0 20.0)
  end
  begin
     id 11 
     name lowerback
     direction 0.0181546 0.999122 -0.0377542   
     length 1.99916   
     axis 0 0 0   XYZ
    dof rx ry rz
    limits (-20.0 45.0)
           (-30.0 30.0)
           (-30.0 30.0)
  end
  begin
     id 12 
     name upperback
     direction 0.0203486 0.99589 0.0882534   
     length 1.951   
     axis 0 0 0   XYZ
    dof rx ry rz
    limits (-20.0 45.0)
           (-30.0 30.0)
           (-30.0 30.0)
  end
  begin
     id 13 
     name thorax
     direction 0.0131685 0.994241 0.106355   
     length 1.97461   
     axis 0 0 0   XYZ
    dof rx ry rz
    limits (-20.0 45.0)
           (-30.0 30.0)
           (-30.0 30.0)
  end
  begin
     id 14 
     name lowerneck
     direction -0.0281395 0.999325 0.023617   
     length 1.7959   
     axis 0 0 0   XYZ
    dof rx ry rz
    limits (-20.0 45.0)
           (-30.0 30.0)
           (-30.0 30.0)
  end
  begin
     id 15 
     name upperneck
     direction 0.0288721 0.991984 -0.123019   
     length 1.79917   
     axis 0 0 0   XYZ
    dof rx ry rz
    limits (-20.0 45.0)
           (-30.0 30.0)
           (-30.0 30.0)
  end
  begin
     id 16
     name head
     direction 0.0133797 0.998944 -0.0439492  
     length 1.80902  
     axis 0 0 0   XYZ
    dof rx ry rz
    limits (-20.0 45.0)
           (-30.0 30.0)
           (-30.0 30.0)
  end
  begin
     id 17 
     name lclavicle
     direction 0.919195 0.377107 0.113449  
     length 3.17815  
     axis 0 0 0   XYZ
    dof ry rz
    limits (-20.0 10.0)
           (0.0 20.0)
  end
  begin
     id 18 
     name lhumerus
     direction 1 -4.48959e-011 2.13129e-027   
     length 4.84137   
     axis 180 -30 -90   XYZ
    dof rx ry rz
    limits (-60.0 90.0)
           (-90.0 90.0)
           (-90.0 90.0)
  end
  begin
     id 19
     name lradius
     direction 1 -4.48957e-011 -6.30627e-028   
     length 3.2452   
     axis 180 -30 -90   XYZ
    dof rx
    limits (-10.0 170.0)
  end
  begin
     id 20
     name lwrist
     direction 1 -4.4901e-011 9.13299e-027   
     length 1.6226   
     axis -6.84618e-015 90 90   XYZ
    dof ry
    limits (-180.0 0.0)
 end
  begin
     id 21 
     name lhand
     direction 1 -4.48816e-011 1.82293e-026   
     length 0.521221   
     axis -1.16502e-014 90 90   XYZ
    dof rx rz
    limits (-90.0 90.0)
           (-45.0 45.0)
  end
  begin
     id 22 
     name lfingers
     direction 1 -4.49108e-011 3.65687e-026   
     length 0.420221   
     axis -2.33008e-014 90 90   XYZ
    dof rx
    limits (0.0 90.0)
  end
  begin
     id 23
     name lthumb
     direction 0.707107 -6.34943e-011 0.707107   
     length 0.603356   
     axis -90 45 5.69224e-014   XYZ
    dof rx rz
    limits (-45.0 45.0)
           (-45.0 45.0)
  end
  begin
     id 24 
     name rclavicle
     direction -0.90847 0.38596 0.160368   
     length 3.12973  
     axis 0 0 0   XYZ 
    dof ry rz
    limits (-10.0 20.0)
           (-20.0 0.0)
  end
  begin
     id 25 
     name rhumerus
     direction -1 -4.48974e-011 4.47268e-028  
     length 4.72284   
     axis 180 30 90   XYZ
    dof rx ry rz
    limits (-90.0 60.0)
           (-90.0 90.0)
           (-90.0 90.0)
  end
  begin
     id 26 
     name rradius
     direction -1 -4.48969e-011 3.43203e-027   
     length 3.23459   
     axis 180 30 90   XYZ
    dof rx
    limits (-10.0 170.0)
  end
  begin
     id 27 
     name rwrist
     direction -1 -4.48969e-011 9.12911e-027   
     length 1.6173   
     axis -6.84618e-015 -90 -90   XYZ
    dof ry
    limits (-180.0 0.0)
  end
  begin
     id 28
     name rhand
     direction -1 -4.49194e-011 1.83006e-026   
     length 0.307416   
     axis -1.16502e-014 -90 -90   XYZ
    dof rx rz
    limits (-90.0 90.0)
           (-45.0 45.0)
  end
  begin
     id 29
     name rfingers
     direction -1 -4.48423e-011 3.63103e-026   
     length 0.247847   
     axis -2.33008e-014 -90 -90   XYZ
    dof rx
    limits (0.0 90.0)
  end
  begin
     id 30
     name rthumb
     direction -0.707107 -6.34802e-011 0.707107   
     length 0.35586   
     axis -90 -45 -5.69224e-014   XYZ
    dof rx rz
    limits (-45.0 45.0)
           (-45.0 45.0)
  end
:hierarchy
  begin
    root lhipjoint rhipjoint lowerback
    lhipjoint lfemur
    lfemur ltibia
    ltibia lfoot
    lfoot ltoes
    rhipjoint rfemur
    rfemur rtibia
    rtibia rfoot
    rfoot rtoes
    lowerback upperback
    upperback thorax
    thorax lowerneck lclavicle rclavicle
    lowerneck upperneck
    upperneck head
    lclavicle lhumerus
    lhumerus lradius
    lradius lwrist
    lwrist lhand lthumb
    lhand lfingers
    rclavicle rhumerus
    rhumerus rradius
    rradius rwrist
    rwrist rhand rthumb
    rhand rfingers
  end

#!OML:ASF H:\Terrain\Patient Classification 1\Animal1\Tuesday\Animal1.ASF
:FULLY-SPECIFIED
:DEGREES
376
root 11.2871 15.9512 -9.06646 -1.80055 -12.6748 0.10468
lowerback 0.206279 -1.27468 -1.60611
upperback 5.12096 -1.75249 1.70878
thorax 5.2833 -0.994813 2.59238
lowerneck -0.603988 -2.00131 -6.12185
upperneck -21.6785 -1.51197 9.43545
head -6.2799 -1.00806 4.16922
rclavicle -5.11871e-015 1.59028e-015
rhumerus -16.6623 15.4853 -96.3221
rradius 112.49
rwrist 19.3915
rhand 43.9458 -10.9432
rfingers 7.12502
rthumb 65.5741 -17.1344
lclavicle -5.11871e-015 1.59028e-015
lhumerus -14.8866 -18.4965 101.305
lradius 111.136
lwrist -58.3412
lhand 63.1396 -107.509
lfingers 7.12502
lthumb 74.9769 63.61
rfemur -20.8372 9.10807 17.7056
rtibia 40.6066
rfoot -12.2862 -19.2793
rtoes -2.43155
lfemur -1.88186 -5.58934 -17.0986
ltibia 31.6788
lfoot -24.59 20.7677
ltoes -6.70608
377
root 11.2904 15.9462 -9.07887 -1.68377 -12.6259 0.288218
lowerback 0.391542 -1.27166 -1.67455
upperback 5.05191 -1.74218 1.59358
thorax 5.10233 -0.986973 2.5162
lowerneck -0.777974 -1.88905 -5.96781
upperneck -21.2107 -1.39228 9.25397
head -6.11617 -0.940187 4.06134
rclavicle -1.75427e-014 9.54166e-015
rhumerus -16.5205 15.6146 -96.4968
rradius 112.12
rwrist 19.1378
rhand 42.0157 -10.0538
rfingers 7.12502
rthumb 64.0436 -18.7467
lclavicle -1.75427e-014 9.54166e-015
lhumerus -14.9869 -18.3203 101.353
lradius 111.138
lwrist -58.2036
lhand 62.3192 -106.821
lfingers 7.12502
lthumb 74.9393 65.9716
rfemur -21.1727 9.05704 17.4575
rtibia 40.7991
rfoot -12.3595 -19.1848
rtoes -2.63927
lfemur -2.34886 -5.68031 -17.2606
ltibia 32.0472
lfoot -24.9928 20.423
ltoes -5.03163
378
root 11.2952 15.9378 -9.09964 -1.4409 -12.5872 0.278001
lowerback 0.628865 -1.23698 -1.55528
upperback 4.9774 -1.69717 1.53566
thorax 4.87989 -0.954824 2.39687
lowerneck -1.00117 -1.78725 -5.87395
upperneck -20.9039 -1.26933 9.14072
head -5.99358 -0.871522 3.9912
rclavicle -1.63997e-015 0
rhumerus -16.2825 15.6102 -96.525
rradius 112.061
rwrist 18.9502
rhand 41.6268 -10.2955
rfingers 7.12502
rthumb 63.7292 -19.4555
lclavicle -1.63997e-015 0
lhumerus -14.8718 -18.3579 101.389
lradius 111.112
lwrist -58.1937
lhand 62.3144 -106.526
lfingers 7.12502
lthumb 74.939 65.6943
rfemur -21.6732 9.03345 17.3863
rtibia 41.066
rfoot -12.5961 -18.9456
rtoes -2.33932
lfemur -3.05704 -5.68647 -17.1905
ltibia 32.5845
lfoot -25.2711 20.1814
ltoes -4.20518
379
root 11.3011 15.9287 -9.12705 -1.08865 -12.5232 0.0728459
lowerback 0.842579 -1.21767 -1.27544
upperback 4.92084 -1.67796 1.54557
thorax 4.68886 -0.931425 2.256
lowerneck -1.22005 -1.69684 -5.79299
upperneck -20.8858 -1.15487 9.00648
head -5.96272 -0.807928 3.92582
rclavicle 2.22142e-014 -1.66979e-014
rhumerus -16.0835 15.5561 -96.5026
rradius 112.079
rwrist 19.2432
rhand 41.2847 -10.0619
rfingers 7.12502
rthumb 63.4512 -19.6234
lclavicle 2.22142e-014 -1.66979e-014
lhumerus -14.5527 -18.5933 101.255
lradius 111.133
lwrist -58.3166
lhand 63.2341 -107.08
lfingers 7.12502
lthumb 74.9784 62.8288
rfemur -22.3274 9.01297 17.512
rtibia 41.4163
rfoot -13.0463 -18.7485
rtoes -0.000628342
lfemur -3.91715 -5.55614 -16.8746
ltibia 33.2667
lfoot -25.2886 20.0652
ltoes -4.96629
380
root 11.3063 15.919 -9.15636 -0.776614 -12.4099 -0.0527708
lowerback 1.18812 -1.26124 -1.13594
upperback 4.82087 -1.73938 1.56618
thorax 4.38707 -0.953558 2.20579
lowerneck -1.81227 -1.55203 -5.91315
upperneck -20.3326 -0.960007 9.01222
head -5.70136 -0.687303 3.91885
rclavicle 1.62506e-014 -1.27222e-014
rhumerus -15.892 15.8131 -96.415
rradius 112.227
rwrist 19.2698
rhand 41.096 -10.3947
rfingers 7.12502
rthumb 63.2972 -20.1738
lclavicle 1.62506e-014 -1.27222e-014
lhumerus -14.4113 -18.6313 101.131
lradius 111.27
lwrist -58.2245
lhand 62.9619 -107.312
lfingers 7.12502
lthumb 74.9725 64.0746
rfemur -23.0047 8.92726 17.5692
rtibia 41.8362
rfoot -13.652 -18.5438
rtoes 5.73737
lfemur -4.83043 -5.41192 -16.6318
ltibia 34.1365
lfoot -25.406 19.918
ltoes -5.58659
381
root 11.3135 15.904 -9.18632 -0.493441 -12.299 0.115496
lowerback 1.74829 -1.30269 -1.32604
upperback 4.55295 -1.79137 1.55009
thorax 3.79874 -0.978795 2.31061
lowerneck -2.30117 -1.35435 -6.03254
upperneck -19.469 -0.715594 8.97631
head -5.36736 -0.537933 3.89232
rclavicle -5.96354e-016 -1.47101e-014
rhumerus -15.7749 16.1046 -96.2516
rradius 112.474
rwrist 18.8831
rhand 41.6049 -11.0705
rfingers 7.12502
rthumb 63.7115 -20.2565
lclavicle -5.96354e-016 -1.47101e-014
lhumerus -14.6761 -18.3481 101.326
lradius 111.534
lwrist -58.0668
lhand 61.5107 -106.483
lfingers 7.12502
lthumb 74.8598 68.6159
rfemur -23.7796 8.77467 17.2936
rtibia 42.343
rfoot -13.9755 -18.5947
rtoes 1.48945
lfemur -5.84931 -5.34544 -16.7388
ltibia 35.1429
lfoot -25.4982 19.9037
ltoes -5.83012
382
root 11.3213 15.8867 -9.21906 0.0229045 -12.2475 0.0489
lowerback 2.1506 -1.31555 -1.21824
upperback 4.2495 -1.80803 1.58771
thorax 3.25464 -0.976319 2.30222
lowerneck -2.49916 -1.2064 -6
upperneck -18.8752 -0.562339 8.75979
head -5.16513 -0.44136 3.79671
rclavicle 8.44835e-015 -1.70955e-014
rhumerus -15.8651 16.1227 -96.2211
rradius 112.936
rwrist 19.0255
rhand 41.5518 -11.8548
rfingers 7.12502
rthumb 63.6684 -21.1036
lclavicle 8.44835e-015 -1.70955e-014
lhumerus -14.9935 -18.008 101.568
lradius 111.753
lwrist -58.1129
lhand 60.7495 -105.323
lfingers 7.12502
lthumb 74.747 70.2277
rfemur -24.8696 8.56491 17.2585
rtibia 42.9838
rfoot -13.7506 -18.8839
rtoes -0.242378
lfemur -7.14622 -5.18459 -16.57
ltibia 36.2367
lfoot -25.5276 19.7232
ltoes -5.84782
383
root 11.3277 15.8658 -9.257 0.636815 -12.1054 -0.13548
lowerback 2.46061 -1.38144 -0.98655
upperback 4.03689 -1.8947 1.65315
thorax 2.85838 -1.00843 2.24984
lowerneck -3.05706 -1.12972 -5.84165
upperneck -18.1678 -0.518151 8.38148
head -4.8629 -0.390706 3.62832
rclavicle -1.96797e-014 6.75868e-015
rhumerus -16.0621 16.1829 -96.3072
rradius 113.352
rwrist 19.7902
rhand 39.8397 -12.1307
rfingers 7.12502
rthumb 62.2622 -23.2943
lclavicle -1.96797e-014 6.75868e-015
lhumerus -14.9689 -17.7683 101.542
lradius 111.902
lwrist -58.1178
lhand 60.3916 -104.427
lfingers 7.12502
lthumb 74.6815 70.6194
rfemur -26.0948 8.20404 17.3609
rtibia 43.7614
rfoot -13.3904 -18.6904
rtoes 1.14507
lfemur -8.64286 -5.07707 -16.2369
ltibia 37.4654
lfoot -25.6132 19.6202
ltoes -7.17512
384
root 11.339 15.8288 -9.30012 1.01522 -11.7589 0.201586
lowerback 2.80429 -1.46042 -1.11567
upperback 4.04257 -1.99751 1.47338
thorax 2.67401 -1.05896 2.14629
lowerneck -4.03389 -1.08062 -5.53421
upperneck -17.3849 -0.493396 8.01411
head -4.46904 -0.352814 3.43774
rclavicle -1.65985e-014 3.18055e-015
rhumerus -15.609 16.2216 -96.2285
rradius 113.494
rwrist 20.2158
rhand 39.8999 -11.637
rfingers 7.12502
rthumb 62.3121 -22.7368
lclavicle -1.65985e-014 3.18055e-015
lhumerus -14.476 -17.9594 101.242
lradius 112.124
lwrist -58.0387
lhand 60.3496 -104.307
lfingers 7.12502
lthumb 74.6733 70.6496
rfemur -27.2035 7.56746 16.8813
rtibia 44.6782
rfoot -13.5348 -18.1031
rtoes 1.84504
lfemur -10.1361 -5.14654 -16.5032
ltibia 38.887
lfoot -25.779 19.6771
ltoes -8.24038
385
root 11.3537 15.7849 -9.35099 1.36798 -11.421 0.567766
lowerback 3.08467 -1.50935 -1.06458
upperback 4.20408 -2.05777 1.14656
thorax 2.67192 -1.08333 1.78715
lowerneck -4.94337 -0.965898 -5.2562
upperneck -16.854 -0.34921 7.83091
head -4.17137 -0.267562 3.3162
rclavicle 2.22142e-014 -4.37326e-015
rhumerus -14.6025 16.2397 -96.018
rradius 113.713
rwrist 20.3051
rhand 41.2142 -11.7026
rfingers 7.12502
rthumb 63.3938 -21.3457
lclavicle 2.22142e-014 -4.37326e-015
lhumerus -13.732 -18.4921 100.658
lradius 112.474
lwrist -57.9756
lhand 60.5952 -104.976
lfingers 7.12502
lthumb 74.7197 70.4367
rfemur -28.405 6.95932 16.3659
rtibia 45.7038
rfoot -14.0535 -17.924
rtoes -0.209793
lfemur -11.6898 -5.05294 -16.8158
ltibia 40.3648
lfoot -25.8909 19.5797
ltoes -8.04469
386
root 11.365 15.7363 -9.41207 1.85651 -11.2018 0.480966
lowerback 3.58587 -1.56202 -0.697838
upperback 4.25456 -2.12138 0.996223
thorax 2.42583 -1.1012 1.44226
lowerneck -5.53114 -0.785714 -5.01977
upperneck -16.5082 -0.11832 7.68781
head -3.98848 -0.146432 3.21996
rclavicle -2.12203e-014 6.75868e-015
rhumerus -14.0515 16.3316 -95.8843
rradius 114.136
rwrist 20.4869
rhand 40.7157 -11.5524
rfingers 7.12502
rthumb 62.9858 -21.7622
lclavicle -2.12203e-014 6.75868e-015
lhumerus -13.1998 -18.8013 100.133
lradius 112.924
lwrist -57.8488
lhand 60.2738 -105.099
lfingers 7.12502
lthumb 74.6582 71.7118
rfemur -29.8168 6.6691 16.3725
rtibia 46.7944
rfoot -14.2155 -18.2031
rtoes -1.04625
lfemur -13.3733 -4.75895 -16.6016
ltibia 41.842
lfoot -26.0149 19.3321
ltoes -7.57207
387
root 11.3755 15.6889 -9.47343 2.20272 -10.9717 0.62409
lowerback 4.32371 -1.61957 -0.748809
upperback 4.28296 -2.19864 0.881884
thorax 2.04272 -1.1378 1.3774
lowerneck -6.08758 -0.613222 -4.6222
upperneck -16.0909 0.0773515 7.43017
head -3.78801 -0.0468164 3.06255
rclavicle 8.34896e-015 -1.39149e-014
rhumerus -14.0878 16.3708 -95.7742
rradius 114.68
rwrist 20.2617
rhand 39.6374 -10.563
rfingers 7.12502
rthumb 62.0939 -21.9394
lclavicle 8.34896e-015 -1.39149e-014
lhumerus -12.905 -18.8251 99.9065
lradius 113.4
lwrist -57.9462
lhand 60.1876 -104.578
lfingers 7.12502
lthumb 74.6406 71.4981
rfemur -31.0704 6.32705 16.1504
rtibia 47.8208
rfoot -14.2209 -18.0475
rtoes 0.539249
lfemur -14.932 -4.49979 -16.6553
ltibia 43.2918
lfoot -26.016 19.0944
ltoes -7.18011
